<svg width="73" height="73" viewBox="0 0 73 73" fill="none" xmlns="http://www.w3.org/2000/svg">
<rect width="73" height="73" fill="black" style="fill:black;fill-opacity:1;"/>
<rect width="32" height="32" transform="translate(4 4)" fill="white" style="fill:white;fill-opacity:1;"/>
<path d="M21.0661 32.384C19.5515 32.384 18.1861 32.1493 16.9701 31.68C15.7541 31.1893 14.7195 30.4747 13.8661 29.536C13.0128 28.576 12.3515 27.392 11.8821 25.984C11.4128 24.5547 11.1781 22.8907 11.1781 20.992C11.1781 19.1147 11.4128 17.4507 11.8821 16C12.3515 14.528 13.0128 13.3013 13.8661 12.32C14.7195 11.3173 15.7541 10.56 16.9701 10.048C18.1861 9.536 19.5515 9.28 21.0661 9.28C23.1355 9.28 24.8421 9.70667 26.1861 10.56C27.5301 11.392 28.6075 12.7147 29.4181 14.528L25.2261 16.704C24.9275 15.7653 24.4581 15.0187 23.8181 14.464C23.1995 13.888 22.2821 13.6 21.0661 13.6C19.6368 13.6 18.4848 14.0693 17.6101 15.008C16.7568 15.9253 16.3301 17.2693 16.3301 19.04V22.624C16.3301 24.3947 16.7568 25.7493 17.6101 26.688C18.4848 27.6053 19.6368 28.064 21.0661 28.064C22.2608 28.064 23.2101 27.744 23.9141 27.104C24.6395 26.4427 25.1728 25.6533 25.5141 24.736L29.4821 27.04C28.6501 28.7467 27.5515 30.0693 26.1861 31.008C24.8421 31.9253 23.1355 32.384 21.0661 32.384Z" fill="black" style="fill:black;fill-opacity:1;"/>
<rect width="32" height="32" transform="translate(37 4)" fill="black" style="fill:black;fill-opacity:1;"/>
<rect width="32" height="32" transform="translate(4 37)" fill="black" style="fill:black;fill-opacity:1;"/>
<rect width="32" height="32" transform="translate(37 37)" fill="white" style="fill:white;fill-opacity:1;"/>
<path d="M49.5468 65H44.6828V42.664H55.2748C56.2988 42.664 57.2268 42.8347 58.0588 43.176C58.8908 43.5173 59.5948 44.008 60.1708 44.648C60.7681 45.2667 61.2268 46.0133 61.5468 46.888C61.8668 47.7627 62.0268 48.7333 62.0268 49.8C62.0268 51.3147 61.6854 52.6373 61.0028 53.768C60.3414 54.8987 59.3281 55.72 57.9628 56.232L62.3468 65H56.9388L53.0348 56.808H49.5468V65ZM54.6668 52.712C55.3921 52.712 55.9574 52.5307 56.3628 52.168C56.7894 51.784 57.0028 51.2293 57.0028 50.504V49.096C57.0028 48.3707 56.7894 47.8267 56.3628 47.464C55.9574 47.08 55.3921 46.888 54.6668 46.888H49.5468V52.712H54.6668Z" fill="black" style="fill:black;fill-opacity:1;"/>
</svg>
