<svg width="73" height="73" viewBox="0 0 73 73" fill="none" xmlns="http://www.w3.org/2000/svg">
<rect width="73" height="73" fill="black" style="fill:black;fill-opacity:1;"/>
<rect width="32" height="32" transform="translate(4 4)" fill="white" style="fill:white;fill-opacity:1;"/>
<path d="M26.7007 22.356C26.4287 24.404 25.7247 26.004 24.5887 27.156C23.4527 28.308 22.0367 28.884 20.3407 28.884C18.9167 28.884 17.6767 28.524 16.6207 27.804C15.5807 27.084 14.7807 26.06 14.2207 24.732C13.6767 23.388 13.4047 21.812 13.4047 20.004C13.4047 18.18 13.6767 16.596 14.2207 15.252C14.7807 13.908 15.5807 12.876 16.6207 12.156C17.6767 11.436 18.9167 11.076 20.3407 11.076C21.9727 11.076 23.3567 11.636 24.4927 12.756C25.6287 13.876 26.3567 15.436 26.6767 17.436L22.8367 17.652C22.6287 16.532 22.3087 15.708 21.8767 15.18C21.4447 14.636 20.8847 14.364 20.1967 14.364C19.5567 14.364 19.0127 14.572 18.5647 14.988C18.1327 15.404 17.8047 16.036 17.5807 16.884C17.3727 17.716 17.2687 18.756 17.2687 20.004C17.2687 21.252 17.3727 22.292 17.5807 23.124C17.8047 23.94 18.1327 24.556 18.5647 24.972C19.0127 25.388 19.5567 25.596 20.1967 25.596C20.9167 25.596 21.4847 25.316 21.9007 24.756C22.3327 24.196 22.6447 23.324 22.8367 22.14L26.7007 22.356Z" fill="black" style="fill:black;fill-opacity:1;"/>
<rect width="32" height="32" transform="translate(37 4)" fill="black" style="fill:black;fill-opacity:1;"/>
<rect width="32" height="32" transform="translate(4 37)" fill="black" style="fill:black;fill-opacity:1;"/>
<rect width="32" height="32" transform="translate(37 37)" fill="white" style="fill:white;fill-opacity:1;"/>
<path d="M53.0527 44.46C54.1887 44.46 55.1967 44.692 56.0767 45.156C56.9567 45.62 57.6367 46.276 58.1167 47.124C58.6127 47.956 58.8607 48.916 58.8607 50.004C58.8607 51.076 58.6047 52.02 58.0927 52.836C57.5807 53.652 56.8767 54.212 55.9807 54.516L59.7007 61.5H55.7407L52.5727 55.5C52.4607 55.5 52.3487 55.5 52.2367 55.5H50.7727V61.5H47.1007V44.46H53.0527ZM52.6687 52.212C53.3567 52.212 53.9167 52.004 54.3487 51.588C54.7807 51.172 54.9967 50.636 54.9967 49.98C54.9967 49.324 54.7807 48.788 54.3487 48.372C53.9167 47.956 53.3567 47.748 52.6687 47.748H50.7727V52.212H52.6687Z" fill="black" style="fill:black;fill-opacity:1;"/>
</svg>
