<svg width="73" height="73" viewBox="0 0 73 73" fill="none" xmlns="http://www.w3.org/2000/svg">
<rect width="73" height="73" fill="black" style="fill:black;fill-opacity:1;"/>
<rect width="32" height="32" transform="translate(4 4)" fill="white" style="fill:white;fill-opacity:1;"/>
<path d="M20.5183 32.384C17.5316 32.384 15.3129 31.3813 13.8623 29.376C12.4329 27.3493 11.7183 24.5013 11.7183 20.832C11.7183 17.1627 12.4329 14.3253 13.8623 12.32C15.3129 10.2933 17.5316 9.28 20.5183 9.28C21.6703 9.28 22.6836 9.44 23.5583 9.76C24.4543 10.0587 25.2223 10.4853 25.8623 11.04C26.5023 11.5947 27.0249 12.2667 27.4303 13.056C27.8569 13.8453 28.1876 14.7307 28.4223 15.712L23.9423 16.8C23.8143 16.2667 23.6649 15.776 23.4943 15.328C23.3236 14.88 23.0996 14.496 22.8223 14.176C22.5663 13.856 22.2356 13.6107 21.8303 13.44C21.4463 13.248 20.9769 13.152 20.4223 13.152C19.1209 13.152 18.1929 13.664 17.6383 14.688C17.1049 15.6907 16.8383 17.088 16.8383 18.88V22.784C16.8383 24.576 17.1049 25.984 17.6383 27.008C18.1929 28.0107 19.1209 28.512 20.4223 28.512C21.5316 28.512 22.3316 28.1707 22.8223 27.488C23.3343 26.8053 23.7076 25.9307 23.9423 24.864L28.4223 25.952C28.1876 26.9333 27.8569 27.8187 27.4303 28.608C27.0249 29.3973 26.5023 30.08 25.8623 30.656C25.2223 31.2107 24.4543 31.6373 23.5583 31.936C22.6836 32.2347 21.6703 32.384 20.5183 32.384Z" fill="black" style="fill:black;fill-opacity:1;"/>
<rect width="32" height="32" transform="translate(37 4)" fill="black" style="fill:black;fill-opacity:1;"/>
<rect width="32" height="32" transform="translate(4 37)" fill="black" style="fill:black;fill-opacity:1;"/>
<rect width="32" height="32" transform="translate(37 37)" fill="white" style="fill:white;fill-opacity:1;"/>
<path d="M50.5743 65H45.8383V42.664H54.4783C55.5663 42.664 56.5369 42.8347 57.3903 43.176C58.2436 43.496 58.9583 43.9653 59.5343 44.584C60.1316 45.2027 60.5796 45.9493 60.8783 46.824C61.1769 47.6987 61.3263 48.68 61.3263 49.768C61.3263 51.3467 60.9849 52.7013 60.3022 53.832C59.6196 54.9627 58.6489 55.7093 57.3903 56.072L61.7743 65H56.5263L52.7823 56.712H50.5743V65ZM53.3263 53C54.4569 53 55.2356 52.7867 55.6623 52.36C56.1103 51.9333 56.3343 51.2293 56.3343 50.248V49.288C56.3343 48.3067 56.1103 47.6027 55.6623 47.176C55.2356 46.7493 54.4569 46.536 53.3263 46.536H50.5743V53H53.3263Z" fill="black" style="fill:black;fill-opacity:1;"/>
</svg>
