<svg width="249" height="85" viewBox="0 0 249 85" fill="none" xmlns="http://www.w3.org/2000/svg">
<rect width="249" height="85" fill="black" style="fill:black;fill-opacity:1;"/>
<rect width="40" height="40" transform="translate(2 2)" fill="black" style="fill:black;fill-opacity:1;"/>
<rect width="40" height="40" transform="translate(43 2)" fill="white" style="fill:white;fill-opacity:1;"/>
<path d="M63.733 30.264C62.6916 30.264 61.753 30.1027 60.917 29.78C60.081 29.4427 59.3696 28.9513 58.783 28.306C58.1963 27.646 57.7416 26.832 57.419 25.864C57.0963 24.8813 56.935 23.7373 56.935 22.432C56.935 21.1413 57.0963 19.9973 57.419 19C57.7416 17.988 58.1963 17.1447 58.783 16.47C59.3696 15.7807 60.081 15.26 60.917 14.908C61.753 14.556 62.6916 14.38 63.733 14.38C65.1556 14.38 66.329 14.6733 67.253 15.26C68.177 15.832 68.9176 16.7413 69.475 17.988L66.593 19.484C66.3876 18.8387 66.065 18.3253 65.625 17.944C65.1996 17.548 64.569 17.35 63.733 17.35C62.7503 17.35 61.9583 17.6727 61.357 18.318C60.7703 18.9487 60.477 19.8727 60.477 21.09V23.554C60.477 24.7713 60.7703 25.7027 61.357 26.348C61.9583 26.9787 62.7503 27.294 63.733 27.294C64.5543 27.294 65.207 27.074 65.691 26.634C66.1896 26.1793 66.5563 25.6367 66.791 25.006L69.519 26.59C68.947 27.7633 68.1916 28.6727 67.253 29.318C66.329 29.9487 65.1556 30.264 63.733 30.264Z" fill="black" style="fill:black;fill-opacity:1;"/>
<rect width="40" height="40" transform="translate(84 2)" fill="white" style="fill:white;fill-opacity:1;"/>
<path d="M101.626 30H98.2819V14.644H105.564C106.268 14.644 106.906 14.7613 107.478 14.996C108.05 15.2307 108.534 15.568 108.93 16.008C109.341 16.4333 109.656 16.9467 109.876 17.548C110.096 18.1493 110.206 18.8167 110.206 19.55C110.206 20.5913 109.971 21.5007 109.502 22.278C109.047 23.0553 108.351 23.62 107.412 23.972L110.426 30H106.708L104.024 24.368H101.626V30ZM105.146 21.552C105.645 21.552 106.033 21.4273 106.312 21.178C106.605 20.914 106.752 20.5327 106.752 20.034V19.066C106.752 18.5673 106.605 18.1933 106.312 17.944C106.033 17.68 105.645 17.548 105.146 17.548H101.626V21.552H105.146Z" fill="black" style="fill:black;fill-opacity:1;"/>
<rect width="40" height="40" transform="translate(125 2)" fill="white" style="fill:white;fill-opacity:1;"/>
<path d="M145.001 30.264C143.989 30.264 143.065 30.0953 142.229 29.758C141.393 29.4207 140.682 28.922 140.095 28.262C139.509 27.5873 139.054 26.7587 138.731 25.776C138.409 24.7787 138.247 23.6273 138.247 22.322C138.247 21.0167 138.409 19.8727 138.731 18.89C139.054 17.8927 139.509 17.064 140.095 16.404C140.682 15.7293 141.393 15.2233 142.229 14.886C143.065 14.5487 143.989 14.38 145.001 14.38C146.013 14.38 146.937 14.5487 147.773 14.886C148.609 15.2233 149.321 15.7293 149.907 16.404C150.494 17.064 150.949 17.8927 151.271 18.89C151.594 19.8727 151.755 21.0167 151.755 22.322C151.755 23.6273 151.594 24.7787 151.271 25.776C150.949 26.7587 150.494 27.5873 149.907 28.262C149.321 28.922 148.609 29.4207 147.773 29.758C146.937 30.0953 146.013 30.264 145.001 30.264ZM145.001 27.294C146.013 27.294 146.798 26.964 147.355 26.304C147.927 25.644 148.213 24.698 148.213 23.466V21.178C148.213 19.946 147.927 19 147.355 18.34C146.798 17.68 146.013 17.35 145.001 17.35C143.989 17.35 143.197 17.68 142.625 18.34C142.068 19 141.789 19.946 141.789 21.178V23.466C141.789 24.698 142.068 25.644 142.625 26.304C143.197 26.964 143.989 27.294 145.001 27.294Z" fill="black" style="fill:black;fill-opacity:1;"/>
<rect width="40" height="40" transform="translate(166 2)" fill="white" style="fill:white;fill-opacity:1;"/>
<path d="M185.802 30.264C184.452 30.264 183.308 30.0367 182.37 29.582C181.431 29.1127 180.632 28.5113 179.972 27.778L182.172 25.556C183.213 26.7293 184.496 27.316 186.022 27.316C186.843 27.316 187.452 27.1473 187.848 26.81C188.244 26.4727 188.442 26.0253 188.442 25.468C188.442 25.0427 188.324 24.6907 188.09 24.412C187.855 24.1187 187.378 23.9207 186.66 23.818L185.142 23.62C183.514 23.4147 182.318 22.9233 181.556 22.146C180.808 21.3687 180.434 20.3347 180.434 19.044C180.434 18.3547 180.566 17.724 180.83 17.152C181.094 16.58 181.468 16.0887 181.952 15.678C182.45 15.2673 183.052 14.952 183.756 14.732C184.474 14.4973 185.288 14.38 186.198 14.38C187.356 14.38 188.376 14.5633 189.256 14.93C190.136 15.2967 190.891 15.832 191.522 16.536L189.3 18.78C188.933 18.3547 188.486 18.01 187.958 17.746C187.444 17.4673 186.792 17.328 186 17.328C185.252 17.328 184.694 17.46 184.328 17.724C183.961 17.988 183.778 18.3547 183.778 18.824C183.778 19.352 183.917 19.7333 184.196 19.968C184.489 20.2027 184.958 20.3713 185.604 20.474L187.122 20.716C188.706 20.9653 189.879 21.4567 190.642 22.19C191.404 22.9087 191.786 23.9353 191.786 25.27C191.786 26.0033 191.654 26.678 191.39 27.294C191.126 27.91 190.737 28.438 190.224 28.878C189.725 29.318 189.102 29.6627 188.354 29.912C187.606 30.1467 186.755 30.264 185.802 30.264Z" fill="black" style="fill:black;fill-opacity:1;"/>
<rect width="40" height="40" transform="translate(207 2)" fill="white" style="fill:white;fill-opacity:1;"/>
<path d="M226.802 30.264C225.452 30.264 224.308 30.0367 223.37 29.582C222.431 29.1127 221.632 28.5113 220.972 27.778L223.172 25.556C224.213 26.7293 225.496 27.316 227.022 27.316C227.843 27.316 228.452 27.1473 228.848 26.81C229.244 26.4727 229.442 26.0253 229.442 25.468C229.442 25.0427 229.324 24.6907 229.09 24.412C228.855 24.1187 228.378 23.9207 227.66 23.818L226.142 23.62C224.514 23.4147 223.318 22.9233 222.556 22.146C221.808 21.3687 221.434 20.3347 221.434 19.044C221.434 18.3547 221.566 17.724 221.83 17.152C222.094 16.58 222.468 16.0887 222.952 15.678C223.45 15.2673 224.052 14.952 224.756 14.732C225.474 14.4973 226.288 14.38 227.198 14.38C228.356 14.38 229.376 14.5633 230.256 14.93C231.136 15.2967 231.891 15.832 232.522 16.536L230.3 18.78C229.933 18.3547 229.486 18.01 228.958 17.746C228.444 17.4673 227.792 17.328 227 17.328C226.252 17.328 225.694 17.46 225.328 17.724C224.961 17.988 224.778 18.3547 224.778 18.824C224.778 19.352 224.917 19.7333 225.196 19.968C225.489 20.2027 225.958 20.3713 226.604 20.474L228.122 20.716C229.706 20.9653 230.879 21.4567 231.642 22.19C232.404 22.9087 232.786 23.9353 232.786 25.27C232.786 26.0033 232.654 26.678 232.39 27.294C232.126 27.91 231.737 28.438 231.224 28.878C230.725 29.318 230.102 29.6627 229.354 29.912C228.606 30.1467 227.755 30.264 226.802 30.264Z" fill="black" style="fill:black;fill-opacity:1;"/>
<rect width="40" height="40" transform="translate(2 43)" fill="white" style="fill:white;fill-opacity:1;"/>
<path d="M19.6259 71H16.2819V55.644H23.5639C24.2679 55.644 24.9059 55.7613 25.4779 55.996C26.0499 56.2307 26.5339 56.568 26.9299 57.008C27.3406 57.4333 27.6559 57.9467 27.8759 58.548C28.0959 59.1493 28.2059 59.8167 28.2059 60.55C28.2059 61.5913 27.9712 62.5007 27.5019 63.278C27.0472 64.0553 26.3506 64.62 25.4119 64.972L28.4259 71H24.7079L22.0239 65.368H19.6259V71ZM23.1459 62.552C23.6446 62.552 24.0332 62.4273 24.3119 62.178C24.6052 61.914 24.7519 61.5327 24.7519 61.034V60.066C24.7519 59.5673 24.6052 59.1933 24.3119 58.944C24.0332 58.68 23.6446 58.548 23.1459 58.548H19.6259V62.552H23.1459Z" fill="black" style="fill:black;fill-opacity:1;"/>
<rect width="40" height="40" transform="translate(43 43)" fill="white" style="fill:white;fill-opacity:1;"/>
<path d="M63.0015 71.264C61.9895 71.264 61.0655 71.0953 60.2295 70.758C59.3935 70.4207 58.6821 69.922 58.0955 69.262C57.5088 68.5873 57.0541 67.7587 56.7315 66.776C56.4088 65.7787 56.2475 64.6273 56.2475 63.322C56.2475 62.0167 56.4088 60.8727 56.7315 59.89C57.0541 58.8927 57.5088 58.064 58.0955 57.404C58.6821 56.7293 59.3935 56.2233 60.2295 55.886C61.0655 55.5487 61.9895 55.38 63.0015 55.38C64.0135 55.38 64.9375 55.5487 65.7735 55.886C66.6095 56.2233 67.3208 56.7293 67.9075 57.404C68.4941 58.064 68.9488 58.8927 69.2715 59.89C69.5941 60.8727 69.7555 62.0167 69.7555 63.322C69.7555 64.6273 69.5941 65.7787 69.2715 66.776C68.9488 67.7587 68.4941 68.5873 67.9075 69.262C67.3208 69.922 66.6095 70.4207 65.7735 70.758C64.9375 71.0953 64.0135 71.264 63.0015 71.264ZM63.0015 68.294C64.0135 68.294 64.7981 67.964 65.3555 67.304C65.9275 66.644 66.2135 65.698 66.2135 64.466V62.178C66.2135 60.946 65.9275 60 65.3555 59.34C64.7981 58.68 64.0135 58.35 63.0015 58.35C61.9895 58.35 61.1975 58.68 60.6255 59.34C60.0681 60 59.7895 60.946 59.7895 62.178V64.466C59.7895 65.698 60.0681 66.644 60.6255 67.304C61.1975 67.964 61.9895 68.294 63.0015 68.294Z" fill="black" style="fill:black;fill-opacity:1;"/>
<rect width="40" height="40" transform="translate(84 43)" fill="white" style="fill:white;fill-opacity:1;"/>
<path d="M107.624 71L106.524 67.348H101.398L100.298 71H96.9097L101.97 55.644H106.106L111.1 71H107.624ZM103.994 58.68H103.884L102.19 64.51H105.71L103.994 58.68Z" fill="black" style="fill:black;fill-opacity:1;"/>
<rect width="40" height="40" transform="translate(125 43)" fill="white" style="fill:white;fill-opacity:1;"/>
<path d="M139.024 55.644H144.81C145.822 55.644 146.746 55.8053 147.582 56.128C148.418 56.4507 149.129 56.9347 149.716 57.58C150.303 58.2107 150.757 59.01 151.08 59.978C151.403 60.9313 151.564 62.046 151.564 63.322C151.564 64.598 151.403 65.72 151.08 66.688C150.757 67.6413 150.303 68.4407 149.716 69.086C149.129 69.7167 148.418 70.1933 147.582 70.516C146.746 70.8387 145.822 71 144.81 71H139.024V55.644ZM144.81 68.03C145.807 68.03 146.592 67.7513 147.164 67.194C147.736 66.6367 148.022 65.742 148.022 64.51V62.134C148.022 60.902 147.736 60.0073 147.164 59.45C146.592 58.8927 145.807 58.614 144.81 58.614H142.368V68.03H144.81Z" fill="black" style="fill:black;fill-opacity:1;"/>
<rect width="40" height="40" transform="translate(166 43)" fill="white" style="fill:white;fill-opacity:1;"/>
<path d="M185.802 71.264C184.452 71.264 183.308 71.0367 182.37 70.582C181.431 70.1127 180.632 69.5113 179.972 68.778L182.172 66.556C183.213 67.7293 184.496 68.316 186.022 68.316C186.843 68.316 187.452 68.1473 187.848 67.81C188.244 67.4727 188.442 67.0253 188.442 66.468C188.442 66.0427 188.324 65.6907 188.09 65.412C187.855 65.1187 187.378 64.9207 186.66 64.818L185.142 64.62C183.514 64.4147 182.318 63.9233 181.556 63.146C180.808 62.3687 180.434 61.3347 180.434 60.044C180.434 59.3547 180.566 58.724 180.83 58.152C181.094 57.58 181.468 57.0887 181.952 56.678C182.45 56.2673 183.052 55.952 183.756 55.732C184.474 55.4973 185.288 55.38 186.198 55.38C187.356 55.38 188.376 55.5633 189.256 55.93C190.136 56.2967 190.891 56.832 191.522 57.536L189.3 59.78C188.933 59.3547 188.486 59.01 187.958 58.746C187.444 58.4673 186.792 58.328 186 58.328C185.252 58.328 184.694 58.46 184.328 58.724C183.961 58.988 183.778 59.3547 183.778 59.824C183.778 60.352 183.917 60.7333 184.196 60.968C184.489 61.2027 184.958 61.3713 185.604 61.474L187.122 61.716C188.706 61.9653 189.879 62.4567 190.642 63.19C191.404 63.9087 191.786 64.9353 191.786 66.27C191.786 67.0033 191.654 67.678 191.39 68.294C191.126 68.91 190.737 69.438 190.224 69.878C189.725 70.318 189.102 70.6627 188.354 70.912C187.606 71.1467 186.755 71.264 185.802 71.264Z" fill="black" style="fill:black;fill-opacity:1;"/>
<rect width="40" height="40" transform="translate(207 43)" fill="black" style="fill:black;fill-opacity:1;"/>
</svg>
