<svg width="201" height="69" viewBox="0 0 201 69" fill="none" xmlns="http://www.w3.org/2000/svg">
<rect width="201" height="69" fill="black" style="fill:black;fill-opacity:1;"/>
<rect width="32" height="32" transform="translate(2 2)" fill="black" style="fill:black;fill-opacity:1;"/>
<rect width="32" height="32" transform="translate(35 2)" fill="white" style="fill:white;fill-opacity:1;"/>
<path d="M57.7007 20.356C57.4287 22.404 56.7247 24.004 55.5887 25.156C54.4527 26.308 53.0367 26.884 51.3407 26.884C49.9167 26.884 48.6767 26.524 47.6207 25.804C46.5807 25.084 45.7807 24.06 45.2207 22.732C44.6767 21.388 44.4047 19.812 44.4047 18.004C44.4047 16.18 44.6767 14.596 45.2207 13.252C45.7807 11.908 46.5807 10.876 47.6207 10.156C48.6767 9.436 49.9167 9.076 51.3407 9.076C52.9727 9.076 54.3567 9.636 55.4927 10.756C56.6287 11.876 57.3567 13.436 57.6767 15.436L53.8367 15.652C53.6287 14.532 53.3087 13.708 52.8767 13.18C52.4447 12.636 51.8847 12.364 51.1967 12.364C50.5567 12.364 50.0127 12.572 49.5647 12.988C49.1327 13.404 48.8047 14.036 48.5807 14.884C48.3727 15.716 48.2687 16.756 48.2687 18.004C48.2687 19.252 48.3727 20.292 48.5807 21.124C48.8047 21.94 49.1327 22.556 49.5647 22.972C50.0127 23.388 50.5567 23.596 51.1967 23.596C51.9167 23.596 52.4847 23.316 52.9007 22.756C53.3327 22.196 53.6447 21.324 53.8367 20.14L57.7007 20.356Z" fill="black" style="fill:black;fill-opacity:1;"/>
<rect width="32" height="32" transform="translate(68 2)" fill="white" style="fill:white;fill-opacity:1;"/>
<path d="M84.0527 9.46C85.1887 9.46 86.1967 9.692 87.0767 10.156C87.9567 10.62 88.6367 11.276 89.1167 12.124C89.6127 12.956 89.8607 13.916 89.8607 15.004C89.8607 16.076 89.6047 17.02 89.0927 17.836C88.5807 18.652 87.8767 19.212 86.9807 19.516L90.7007 26.5H86.7407L83.5727 20.5C83.4607 20.5 83.3487 20.5 83.2367 20.5H81.7727V26.5H78.1007V9.46H84.0527ZM83.6687 17.212C84.3567 17.212 84.9167 17.004 85.3487 16.588C85.7807 16.172 85.9967 15.636 85.9967 14.98C85.9967 14.324 85.7807 13.788 85.3487 13.372C84.9167 12.956 84.3567 12.748 83.6687 12.748H81.7727V17.212H83.6687Z" fill="black" style="fill:black;fill-opacity:1;"/>
<rect width="32" height="32" transform="translate(101 2)" fill="white" style="fill:white;fill-opacity:1;"/>
<path d="M117.005 26.884C115.629 26.884 114.445 26.516 113.453 25.78C112.477 25.044 111.733 24.004 111.221 22.66C110.709 21.316 110.453 19.764 110.453 18.004C110.453 16.244 110.709 14.692 111.221 13.348C111.733 11.988 112.477 10.94 113.453 10.204C114.445 9.452 115.629 9.076 117.005 9.076C118.381 9.076 119.557 9.452 120.533 10.204C121.525 10.94 122.277 11.988 122.789 13.348C123.301 14.692 123.557 16.244 123.557 18.004C123.557 19.764 123.301 21.316 122.789 22.66C122.277 24.004 121.525 25.044 120.533 25.78C119.557 26.516 118.381 26.884 117.005 26.884ZM117.005 23.596C117.597 23.596 118.093 23.388 118.493 22.972C118.893 22.54 119.189 21.916 119.381 21.1C119.589 20.268 119.693 19.236 119.693 18.004C119.693 16.756 119.589 15.716 119.381 14.884C119.189 14.052 118.893 13.428 118.493 13.012C118.093 12.58 117.597 12.364 117.005 12.364C116.413 12.364 115.917 12.58 115.517 13.012C115.117 13.428 114.813 14.052 114.605 14.884C114.413 15.716 114.317 16.756 114.317 18.004C114.317 19.236 114.413 20.268 114.605 21.1C114.813 21.916 115.117 22.54 115.517 22.972C115.917 23.388 116.413 23.596 117.005 23.596Z" fill="black" style="fill:black;fill-opacity:1;"/>
<rect width="32" height="32" transform="translate(134 2)" fill="white" style="fill:white;fill-opacity:1;"/>
<path d="M147.389 20.524C147.485 21.164 147.661 21.708 147.917 22.156C148.173 22.588 148.517 22.924 148.949 23.164C149.381 23.388 149.885 23.5 150.461 23.5C150.909 23.5 151.285 23.42 151.589 23.26C151.909 23.1 152.149 22.876 152.309 22.588C152.485 22.3 152.557 21.948 152.525 21.532C152.493 21.02 152.245 20.596 151.781 20.26C151.317 19.908 150.589 19.628 149.597 19.42C147.789 19.068 146.421 18.476 145.493 17.644C144.565 16.796 144.101 15.724 144.101 14.428C144.101 13.34 144.341 12.396 144.821 11.596C145.317 10.78 146.013 10.156 146.909 9.724C147.821 9.292 148.885 9.076 150.101 9.076C151.221 9.076 152.205 9.308 153.053 9.772C153.917 10.236 154.613 10.9 155.141 11.764C155.685 12.628 156.029 13.628 156.173 14.764L152.477 14.956C152.413 14.428 152.269 13.972 152.045 13.588C151.837 13.188 151.557 12.884 151.205 12.676C150.853 12.468 150.445 12.364 149.981 12.364C149.229 12.364 148.653 12.564 148.253 12.964C147.869 13.348 147.717 13.868 147.797 14.524C147.845 14.844 147.973 15.116 148.181 15.34C148.389 15.564 148.669 15.748 149.021 15.892C149.389 16.036 149.869 16.172 150.461 16.3C150.525 16.3 150.581 16.308 150.629 16.324C152.357 16.644 153.717 17.26 154.709 18.172C155.717 19.084 156.221 20.188 156.221 21.484C156.221 22.572 155.973 23.516 155.477 24.316C154.997 25.116 154.317 25.732 153.437 26.164C152.573 26.58 151.557 26.788 150.389 26.788C149.109 26.788 147.981 26.54 147.005 26.044C146.029 25.548 145.253 24.852 144.677 23.956C144.117 23.06 143.805 21.996 143.741 20.764L147.389 20.524Z" fill="black" style="fill:black;fill-opacity:1;"/>
<rect width="32" height="32" transform="translate(167 2)" fill="white" style="fill:white;fill-opacity:1;"/>
<path d="M180.389 20.524C180.485 21.164 180.661 21.708 180.917 22.156C181.173 22.588 181.517 22.924 181.949 23.164C182.381 23.388 182.885 23.5 183.461 23.5C183.909 23.5 184.285 23.42 184.589 23.26C184.909 23.1 185.149 22.876 185.309 22.588C185.485 22.3 185.557 21.948 185.525 21.532C185.493 21.02 185.245 20.596 184.781 20.26C184.317 19.908 183.589 19.628 182.597 19.42C180.789 19.068 179.421 18.476 178.493 17.644C177.565 16.796 177.101 15.724 177.101 14.428C177.101 13.34 177.341 12.396 177.821 11.596C178.317 10.78 179.013 10.156 179.909 9.724C180.821 9.292 181.885 9.076 183.101 9.076C184.221 9.076 185.205 9.308 186.053 9.772C186.917 10.236 187.613 10.9 188.141 11.764C188.685 12.628 189.029 13.628 189.173 14.764L185.477 14.956C185.413 14.428 185.269 13.972 185.045 13.588C184.837 13.188 184.557 12.884 184.205 12.676C183.853 12.468 183.445 12.364 182.981 12.364C182.229 12.364 181.653 12.564 181.253 12.964C180.869 13.348 180.717 13.868 180.797 14.524C180.845 14.844 180.973 15.116 181.181 15.34C181.389 15.564 181.669 15.748 182.021 15.892C182.389 16.036 182.869 16.172 183.461 16.3C183.525 16.3 183.581 16.308 183.629 16.324C185.357 16.644 186.717 17.26 187.709 18.172C188.717 19.084 189.221 20.188 189.221 21.484C189.221 22.572 188.973 23.516 188.477 24.316C187.997 25.116 187.317 25.732 186.437 26.164C185.573 26.58 184.557 26.788 183.389 26.788C182.109 26.788 180.981 26.54 180.005 26.044C179.029 25.548 178.253 24.852 177.677 23.956C177.117 23.06 176.805 21.996 176.741 20.764L180.389 20.524Z" fill="black" style="fill:black;fill-opacity:1;"/>
<rect width="32" height="32" transform="translate(2 35)" fill="white" style="fill:white;fill-opacity:1;"/>
<path d="M18.0527 42.46C19.1887 42.46 20.1967 42.692 21.0767 43.156C21.9567 43.62 22.6367 44.276 23.1167 45.124C23.6127 45.956 23.8607 46.916 23.8607 48.004C23.8607 49.076 23.6047 50.02 23.0927 50.836C22.5807 51.652 21.8767 52.212 20.9807 52.516L24.7007 59.5H20.7407L17.5727 53.5C17.4607 53.5 17.3487 53.5 17.2367 53.5H15.7727V59.5H12.1007V42.46H18.0527ZM17.6687 50.212C18.3567 50.212 18.9167 50.004 19.3487 49.588C19.7807 49.172 19.9967 48.636 19.9967 47.98C19.9967 47.324 19.7807 46.788 19.3487 46.372C18.9167 45.956 18.3567 45.748 17.6687 45.748H15.7727V50.212H17.6687Z" fill="black" style="fill:black;fill-opacity:1;"/>
<rect width="32" height="32" transform="translate(35 35)" fill="white" style="fill:white;fill-opacity:1;"/>
<path d="M51.0047 59.884C49.6287 59.884 48.4447 59.516 47.4527 58.78C46.4767 58.044 45.7327 57.004 45.2207 55.66C44.7087 54.316 44.4527 52.764 44.4527 51.004C44.4527 49.244 44.7087 47.692 45.2207 46.348C45.7327 44.988 46.4767 43.94 47.4527 43.204C48.4447 42.452 49.6287 42.076 51.0047 42.076C52.3807 42.076 53.5567 42.452 54.5327 43.204C55.5247 43.94 56.2767 44.988 56.7887 46.348C57.3007 47.692 57.5567 49.244 57.5567 51.004C57.5567 52.764 57.3007 54.316 56.7887 55.66C56.2767 57.004 55.5247 58.044 54.5327 58.78C53.5567 59.516 52.3807 59.884 51.0047 59.884ZM51.0047 56.596C51.5967 56.596 52.0927 56.388 52.4927 55.972C52.8927 55.54 53.1887 54.916 53.3807 54.1C53.5887 53.268 53.6927 52.236 53.6927 51.004C53.6927 49.756 53.5887 48.716 53.3807 47.884C53.1887 47.052 52.8927 46.428 52.4927 46.012C52.0927 45.58 51.5967 45.364 51.0047 45.364C50.4127 45.364 49.9167 45.58 49.5167 46.012C49.1167 46.428 48.8127 47.052 48.6047 47.884C48.4127 48.716 48.3167 49.756 48.3167 51.004C48.3167 52.236 48.4127 53.268 48.6047 54.1C48.8127 54.916 49.1167 55.54 49.5167 55.972C49.9167 56.388 50.4127 56.596 51.0047 56.596Z" fill="black" style="fill:black;fill-opacity:1;"/>
<rect width="32" height="32" transform="translate(68 35)" fill="white" style="fill:white;fill-opacity:1;"/>
<path d="M82.2527 42.46H85.7567L90.8687 59.5H87.0527L84.0047 48.676L80.9567 59.5H77.1407L82.2527 42.46ZM80.6207 56.62L81.9167 53.74H86.1167L87.4127 56.62H80.6207Z" fill="black" style="fill:black;fill-opacity:1;"/>
<rect width="32" height="32" transform="translate(101 35)" fill="white" style="fill:white;fill-opacity:1;"/>
<path d="M116.045 42.46C117.613 42.46 118.981 42.804 120.149 43.492C121.317 44.18 122.213 45.164 122.837 46.444C123.461 47.724 123.773 49.244 123.773 51.004C123.773 52.748 123.461 54.26 122.837 55.54C122.229 56.82 121.349 57.804 120.197 58.492C119.061 59.164 117.725 59.5 116.189 59.5H111.029V42.46H116.045ZM116.045 56.212C117.293 56.212 118.245 55.78 118.901 54.916C119.573 54.036 119.909 52.724 119.909 50.98C119.909 49.236 119.573 47.932 118.901 47.068C118.245 46.188 117.293 45.748 116.045 45.748H114.701V56.212H116.045Z" fill="black" style="fill:black;fill-opacity:1;"/>
<rect width="32" height="32" transform="translate(134 35)" fill="white" style="fill:white;fill-opacity:1;"/>
<path d="M147.389 53.524C147.485 54.164 147.661 54.708 147.917 55.156C148.173 55.588 148.517 55.924 148.949 56.164C149.381 56.388 149.885 56.5 150.461 56.5C150.909 56.5 151.285 56.42 151.589 56.26C151.909 56.1 152.149 55.876 152.309 55.588C152.485 55.3 152.557 54.948 152.525 54.532C152.493 54.02 152.245 53.596 151.781 53.26C151.317 52.908 150.589 52.628 149.597 52.42C147.789 52.068 146.421 51.476 145.493 50.644C144.565 49.796 144.101 48.724 144.101 47.428C144.101 46.34 144.341 45.396 144.821 44.596C145.317 43.78 146.013 43.156 146.909 42.724C147.821 42.292 148.885 42.076 150.101 42.076C151.221 42.076 152.205 42.308 153.053 42.772C153.917 43.236 154.613 43.9 155.141 44.764C155.685 45.628 156.029 46.628 156.173 47.764L152.477 47.956C152.413 47.428 152.269 46.972 152.045 46.588C151.837 46.188 151.557 45.884 151.205 45.676C150.853 45.468 150.445 45.364 149.981 45.364C149.229 45.364 148.653 45.564 148.253 45.964C147.869 46.348 147.717 46.868 147.797 47.524C147.845 47.844 147.973 48.116 148.181 48.34C148.389 48.564 148.669 48.748 149.021 48.892C149.389 49.036 149.869 49.172 150.461 49.3C150.525 49.3 150.581 49.308 150.629 49.324C152.357 49.644 153.717 50.26 154.709 51.172C155.717 52.084 156.221 53.188 156.221 54.484C156.221 55.572 155.973 56.516 155.477 57.316C154.997 58.116 154.317 58.732 153.437 59.164C152.573 59.58 151.557 59.788 150.389 59.788C149.109 59.788 147.981 59.54 147.005 59.044C146.029 58.548 145.253 57.852 144.677 56.956C144.117 56.06 143.805 54.996 143.741 53.764L147.389 53.524Z" fill="black" style="fill:black;fill-opacity:1;"/>
<rect width="32" height="32" transform="translate(167 35)" fill="black" style="fill:black;fill-opacity:1;"/>
</svg>
