<svg width="249" height="85" viewBox="0 0 249 85" fill="none" xmlns="http://www.w3.org/2000/svg">
<rect width="249" height="85" fill="black" style="fill:black;fill-opacity:1;"/>
<rect width="40" height="40" transform="translate(2 2)" fill="black" style="fill:black;fill-opacity:1;"/>
<rect width="40" height="40" transform="translate(43 2)" fill="white" style="fill:white;fill-opacity:1;"/>
<path d="M63.3563 30.264C61.303 30.264 59.7776 29.5747 58.7803 28.196C57.7976 26.8027 57.3063 24.8447 57.3063 22.322C57.3063 19.7993 57.7976 17.8487 58.7803 16.47C59.7776 15.0767 61.303 14.38 63.3563 14.38C64.1483 14.38 64.845 14.49 65.4463 14.71C66.0623 14.9153 66.5903 15.2087 67.0303 15.59C67.4703 15.9713 67.8296 16.4333 68.1083 16.976C68.4016 17.5187 68.629 18.1273 68.7903 18.802L65.7103 19.55C65.6223 19.1833 65.5196 18.846 65.4023 18.538C65.285 18.23 65.131 17.966 64.9403 17.746C64.7643 17.526 64.537 17.3573 64.2583 17.24C63.9943 17.108 63.6716 17.042 63.2903 17.042C62.3956 17.042 61.7576 17.394 61.3763 18.098C61.0096 18.7873 60.8263 19.748 60.8263 20.98V23.664C60.8263 24.896 61.0096 25.864 61.3763 26.568C61.7576 27.2573 62.3956 27.602 63.2903 27.602C64.053 27.602 64.603 27.3673 64.9403 26.898C65.2923 26.4287 65.549 25.8273 65.7103 25.094L68.7903 25.842C68.629 26.5167 68.4016 27.1253 68.1083 27.668C67.8296 28.2107 67.4703 28.68 67.0303 29.076C66.5903 29.4573 66.0623 29.7507 65.4463 29.956C64.845 30.1613 64.1483 30.264 63.3563 30.264Z" fill="black" style="fill:black;fill-opacity:1;"/>
<rect width="40" height="40" transform="translate(84 2)" fill="white" style="fill:white;fill-opacity:1;"/>
<path d="M102.332 30H99.0763V14.644H105.016C105.764 14.644 106.432 14.7613 107.018 14.996C107.605 15.216 108.096 15.5387 108.492 15.964C108.903 16.3893 109.211 16.9027 109.416 17.504C109.622 18.1053 109.724 18.78 109.724 19.528C109.724 20.6133 109.49 21.5447 109.02 22.322C108.551 23.0993 107.884 23.6127 107.018 23.862L110.032 30H106.424L103.85 24.302H102.332V30ZM104.224 21.75C105.002 21.75 105.537 21.6033 105.83 21.31C106.138 21.0167 106.292 20.5327 106.292 19.858V19.198C106.292 18.5233 106.138 18.0393 105.83 17.746C105.537 17.4527 105.002 17.306 104.224 17.306H102.332V21.75H104.224Z" fill="black" style="fill:black;fill-opacity:1;"/>
<rect width="40" height="40" transform="translate(125 2)" fill="white" style="fill:white;fill-opacity:1;"/>
<path d="M145.004 30.264C142.951 30.264 141.433 29.5673 140.45 28.174C139.482 26.7807 138.998 24.83 138.998 22.322C138.998 19.814 139.482 17.8633 140.45 16.47C141.433 15.0767 142.951 14.38 145.004 14.38C147.058 14.38 148.568 15.0767 149.536 16.47C150.519 17.8633 151.01 19.814 151.01 22.322C151.01 24.83 150.519 26.7807 149.536 28.174C148.568 29.5673 147.058 30.264 145.004 30.264ZM145.004 27.602C145.943 27.602 146.588 27.2573 146.94 26.568C147.307 25.864 147.49 24.8887 147.49 23.642V20.98C147.49 19.748 147.307 18.7873 146.94 18.098C146.588 17.394 145.943 17.042 145.004 17.042C144.066 17.042 143.413 17.394 143.046 18.098C142.694 18.7873 142.518 19.748 142.518 20.98V23.664C142.518 24.896 142.694 25.864 143.046 26.568C143.413 27.2573 144.066 27.602 145.004 27.602Z" fill="black" style="fill:black;fill-opacity:1;"/>
<rect width="40" height="40" transform="translate(166 2)" fill="white" style="fill:white;fill-opacity:1;"/>
<path d="M185.762 30.264C184.472 30.264 183.35 30.0513 182.396 29.626C181.443 29.2007 180.673 28.6213 180.086 27.888L182 25.776C182.558 26.392 183.166 26.8467 183.826 27.14C184.501 27.4333 185.183 27.58 185.872 27.58C186.664 27.58 187.266 27.404 187.676 27.052C188.087 26.7 188.292 26.194 188.292 25.534C188.292 24.9913 188.131 24.5807 187.808 24.302C187.5 24.0233 186.972 23.8253 186.224 23.708L184.618 23.444C183.24 23.2093 182.242 22.7033 181.626 21.926C181.01 21.134 180.702 20.1733 180.702 19.044C180.702 17.5627 181.186 16.4187 182.154 15.612C183.122 14.7907 184.479 14.38 186.224 14.38C187.412 14.38 188.446 14.5633 189.326 14.93C190.206 15.2967 190.918 15.7953 191.46 16.426L189.59 18.516C189.18 18.0613 188.696 17.7093 188.138 17.46C187.581 17.196 186.95 17.064 186.246 17.064C184.765 17.064 184.024 17.6727 184.024 18.89C184.024 19.418 184.186 19.814 184.508 20.078C184.846 20.342 185.388 20.54 186.136 20.672L187.742 20.958C188.989 21.178 189.95 21.6473 190.624 22.366C191.299 23.0847 191.636 24.0527 191.636 25.27C191.636 25.9887 191.512 26.656 191.262 27.272C191.013 27.8733 190.639 28.4013 190.14 28.856C189.642 29.296 189.026 29.6407 188.292 29.89C187.574 30.1393 186.73 30.264 185.762 30.264Z" fill="black" style="fill:black;fill-opacity:1;"/>
<rect width="40" height="40" transform="translate(207 2)" fill="white" style="fill:white;fill-opacity:1;"/>
<path d="M226.762 30.264C225.472 30.264 224.35 30.0513 223.396 29.626C222.443 29.2007 221.673 28.6213 221.086 27.888L223 25.776C223.558 26.392 224.166 26.8467 224.826 27.14C225.501 27.4333 226.183 27.58 226.872 27.58C227.664 27.58 228.266 27.404 228.676 27.052C229.087 26.7 229.292 26.194 229.292 25.534C229.292 24.9913 229.131 24.5807 228.808 24.302C228.5 24.0233 227.972 23.8253 227.224 23.708L225.618 23.444C224.24 23.2093 223.242 22.7033 222.626 21.926C222.01 21.134 221.702 20.1733 221.702 19.044C221.702 17.5627 222.186 16.4187 223.154 15.612C224.122 14.7907 225.479 14.38 227.224 14.38C228.412 14.38 229.446 14.5633 230.326 14.93C231.206 15.2967 231.918 15.7953 232.46 16.426L230.59 18.516C230.18 18.0613 229.696 17.7093 229.138 17.46C228.581 17.196 227.95 17.064 227.246 17.064C225.765 17.064 225.024 17.6727 225.024 18.89C225.024 19.418 225.186 19.814 225.508 20.078C225.846 20.342 226.388 20.54 227.136 20.672L228.742 20.958C229.989 21.178 230.95 21.6473 231.624 22.366C232.299 23.0847 232.636 24.0527 232.636 25.27C232.636 25.9887 232.512 26.656 232.262 27.272C232.013 27.8733 231.639 28.4013 231.14 28.856C230.642 29.296 230.026 29.6407 229.292 29.89C228.574 30.1393 227.73 30.264 226.762 30.264Z" fill="black" style="fill:black;fill-opacity:1;"/>
<rect width="40" height="40" transform="translate(2 43)" fill="white" style="fill:white;fill-opacity:1;"/>
<path d="M20.3323 71H17.0763V55.644H23.0163C23.7643 55.644 24.4316 55.7613 25.0183 55.996C25.605 56.216 26.0963 56.5387 26.4923 56.964C26.903 57.3893 27.211 57.9027 27.4163 58.504C27.6216 59.1053 27.7243 59.78 27.7243 60.528C27.7243 61.6133 27.4896 62.5447 27.0203 63.322C26.551 64.0993 25.8836 64.6127 25.0183 64.862L28.0323 71H24.4243L21.8503 65.302H20.3323V71ZM22.2243 62.75C23.0016 62.75 23.537 62.6033 23.8303 62.31C24.1383 62.0167 24.2923 61.5327 24.2923 60.858V60.198C24.2923 59.5233 24.1383 59.0393 23.8303 58.746C23.537 58.4527 23.0016 58.306 22.2243 58.306H20.3323V62.75H22.2243Z" fill="black" style="fill:black;fill-opacity:1;"/>
<rect width="40" height="40" transform="translate(43 43)" fill="white" style="fill:white;fill-opacity:1;"/>
<path d="M63.0043 71.264C60.951 71.264 59.433 70.5673 58.4503 69.174C57.4823 67.7807 56.9983 65.83 56.9983 63.322C56.9983 60.814 57.4823 58.8633 58.4503 57.47C59.433 56.0767 60.951 55.38 63.0043 55.38C65.0576 55.38 66.5683 56.0767 67.5363 57.47C68.519 58.8633 69.0103 60.814 69.0103 63.322C69.0103 65.83 68.519 67.7807 67.5363 69.174C66.5683 70.5673 65.0576 71.264 63.0043 71.264ZM63.0043 68.602C63.943 68.602 64.5883 68.2573 64.9403 67.568C65.307 66.864 65.4903 65.8887 65.4903 64.642V61.98C65.4903 60.748 65.307 59.7873 64.9403 59.098C64.5883 58.394 63.943 58.042 63.0043 58.042C62.0656 58.042 61.413 58.394 61.0463 59.098C60.6943 59.7873 60.5183 60.748 60.5183 61.98V64.664C60.5183 65.896 60.6943 66.864 61.0463 67.568C61.413 68.2573 62.0656 68.602 63.0043 68.602Z" fill="black" style="fill:black;fill-opacity:1;"/>
<rect width="40" height="40" transform="translate(84 43)" fill="white" style="fill:white;fill-opacity:1;"/>
<path d="M106.974 71L106.006 67.304H101.804L100.858 71H97.5143L101.672 55.644H106.336L110.494 71H106.974ZM104.004 58.834H103.828L102.332 64.642H105.5L104.004 58.834Z" fill="black" style="fill:black;fill-opacity:1;"/>
<rect width="40" height="40" transform="translate(125 43)" fill="white" style="fill:white;fill-opacity:1;"/>
<path d="M139.812 55.644H144.762C146.83 55.644 148.363 56.304 149.36 57.624C150.358 58.944 150.856 60.8433 150.856 63.322C150.856 65.8007 150.358 67.7 149.36 69.02C148.363 70.34 146.83 71 144.762 71H139.812V55.644ZM144.542 68.404C145.525 68.404 146.244 68.0887 146.698 67.458C147.153 66.8273 147.38 65.9107 147.38 64.708V61.914C147.38 60.726 147.153 59.8167 146.698 59.186C146.244 58.5553 145.525 58.24 144.542 58.24H143.068V68.404H144.542Z" fill="black" style="fill:black;fill-opacity:1;"/>
<rect width="40" height="40" transform="translate(166 43)" fill="white" style="fill:white;fill-opacity:1;"/>
<path d="M185.762 71.264C184.472 71.264 183.35 71.0513 182.396 70.626C181.443 70.2007 180.673 69.6213 180.086 68.888L182 66.776C182.558 67.392 183.166 67.8467 183.826 68.14C184.501 68.4333 185.183 68.58 185.872 68.58C186.664 68.58 187.266 68.404 187.676 68.052C188.087 67.7 188.292 67.194 188.292 66.534C188.292 65.9913 188.131 65.5807 187.808 65.302C187.5 65.0233 186.972 64.8253 186.224 64.708L184.618 64.444C183.24 64.2093 182.242 63.7033 181.626 62.926C181.01 62.134 180.702 61.1733 180.702 60.044C180.702 58.5627 181.186 57.4187 182.154 56.612C183.122 55.7907 184.479 55.38 186.224 55.38C187.412 55.38 188.446 55.5633 189.326 55.93C190.206 56.2967 190.918 56.7953 191.46 57.426L189.59 59.516C189.18 59.0613 188.696 58.7093 188.138 58.46C187.581 58.196 186.95 58.064 186.246 58.064C184.765 58.064 184.024 58.6727 184.024 59.89C184.024 60.418 184.186 60.814 184.508 61.078C184.846 61.342 185.388 61.54 186.136 61.672L187.742 61.958C188.989 62.178 189.95 62.6473 190.624 63.366C191.299 64.0847 191.636 65.0527 191.636 66.27C191.636 66.9887 191.512 67.656 191.262 68.272C191.013 68.8733 190.639 69.4013 190.14 69.856C189.642 70.296 189.026 70.6407 188.292 70.89C187.574 71.1393 186.73 71.264 185.762 71.264Z" fill="black" style="fill:black;fill-opacity:1;"/>
<rect width="40" height="40" transform="translate(207 43)" fill="black" style="fill:black;fill-opacity:1;"/>
</svg>
